<?xml version="1.0" encoding="utf-8"?>
<!-- Generator: Adobe Illustrator 24.0.1, SVG Export Plug-In . SVG Version: 6.00 Build 0)  -->
<svg version="1.1" id="Layer_1" xmlns="http://www.w3.org/2000/svg" xmlns:xlink="http://www.w3.org/1999/xlink" x="0px" y="0px"
	 width="252px" height="54px" viewBox="0 0 252 54" style="enable-background:new 0 0 252 54;" xml:space="preserve">
<style type="text/css">
	.st0{display:none;}
	.st1{fill:#20BDDD;}
</style>
<path class="st0" d="M87,29.5h-5.3l0,0c-3.1,0-5.6,2.5-5.6,5.6v12.5c0,1.5,1.2,2.8,2.8,2.8c1.5,0,2.8-1.2,2.8-2.8v-7.4
	c0-1.3,0.5-2.6,1.5-3.6s2.2-1.5,3.5-1.5c0,0,0.2,0,0.3,0c1.5,0,2.8-1.2,2.8-2.8l0,0C89.8,30.8,88.5,29.5,87,29.5z M57.8,29.5
	c-5.9,0-10.6,4.7-10.6,10.6s4.7,10.6,10.6,10.6S68.4,46,68.4,40.1S63.7,29.5,57.8,29.5z M57.5,45.2c-2.8,0-5-2.3-5-5
	c0-2.8,2.3-5,5-5c2.8,0,5,2.3,5,5C62.6,42.9,60.3,45.2,57.5,45.2z M5.7,44.3L5.7,44.3c-0.5,3.7,2,7.1,5.7,7.7l0,0
	c3.7,0.5,7.1-2,7.7-5.7c0.1-0.4,0.1-0.8,0.1-1.1c-4.9-0.6-9.3-2.8-12.7-6C6.2,41.3,5.8,43.4,5.7,44.3z M22.2,2C11.1,2,2,11.1,2,22.2
	c0,11.2,9.1,20.2,20.2,20.2c11.2,0,20.2-9.1,20.2-20.2S33.4,2,22.2,2z M22.2,31.8c-5.3,0-9.6-4.3-9.6-9.6s4.3-9.6,9.6-9.6
	s9.6,4.3,9.6,9.6C31.8,27.5,27.5,31.8,22.2,31.8z M119,32.6c-4.1,4.1-4.1,10.9,0,15s10.9,4.1,15,0s4.1-10.9,0-15
	S123.2,28.5,119,32.6z M130.1,43.7c-2,2-5.2,2-7.1,0c-2-2-2-5.2,0-7.1c2-2,5.2-2,7.1,0C132.1,38.5,132.1,41.7,130.1,43.7z M219,45.2
	c-1.8-0.4-3.2-1.3-3.2-3.8v-6.3h2.9c1.5,0,2.8-1.2,2.8-2.8c0-1.5-1.2-2.8-2.8-2.8h-2.9v-2.3c0-1.5-1.2-2.8-2.8-2.8l0,0
	c-1.5,0-2.8,1.2-2.8,2.8v2.3h-2c-1.5,0-2.8,1.2-2.8,2.8c0,1.5,1.2,2.8,2.8,2.8h2v6.3c0,5.1,2.9,9,8.1,9.3c1.6,0.1,2.9-0.9,3.1-2.4
	S220.7,45.5,219,45.2z M236.4,43.4c0.6-0.2,8.8-2.7,8.8-2.7c2.1-0.6,4.1-2.9,2.9-5.8c-1.9-4.7-8.4-6.7-13.3-4.3
	c-5.3,2.5-7.5,8.9-5,14.2c2.5,5.2,8.9,7.5,13.9,5.1c1.8-0.9,2.2-2.3,1.6-3.7c-0.6-1.4-2.4-1.9-3.6-1.4c-1.8,0.9-4.1,0.6-5.7-0.7
	C235.6,43.6,235.8,43.6,236.4,43.4z M234.6,37.7c0.5-1.1,1.4-2,2.5-2.5c1.6-0.8,3.5-0.7,4.9,0.2c0.5,0.3,1.8,1.6,0,2.2
	c-1.4,0.5-4.7,1.5-6.1,1.9C234.4,39.8,234.2,38.7,234.6,37.7z M190.1,29.5c-5.9,0-10.6,4.7-10.6,10.6s4.7,10.6,10.6,10.6
	c5.9,0,10.6-4.7,10.6-10.6C200.7,34.2,196,29.5,190.1,29.5z M190.1,45.2c-2.8,0-5-2.3-5-5c0-2.8,2.3-5,5-5c2.8,0,5,2.3,5,5
	C195.2,42.9,192.9,45.2,190.1,45.2z M106.6,35.2c1.9,0.3,3.1-0.6,3.4-2.1c0.3-1.5-0.6-3-2.1-3.3c-3.4-0.8-7.2,0.1-9.9,2.8
	c-4.1,4.1-4.1,10.9,0,15c2.7,2.7,6.2,3.6,9.9,2.8c1.5-0.3,2.4-1.8,2.1-3.3s-1.8-2.4-3.3-2.1c-1.9,0.4-3.5-0.1-4.8-1.3l0,0
	c-2-2-2-5.2,0-7.1C103.2,35.3,104.7,34.8,106.6,35.2z M162.7,29.5L162.7,29.5h-5.6l0,0c-3.1,0-5.6,2.5-5.6,5.6v12.5
	c0,1.5,1.2,2.8,2.8,2.8s2.8-1.2,2.8-2.8v-7.5c0-2.8,2.3-5,5.1-5s5.1,2.3,5.1,5v7.5c0,1.5,1.2,2.8,2.8,2.8s2.8-1.2,2.8-2.8v-7.5
	C172.7,34.4,168.3,29.8,162.7,29.5z"/>
<g id="logo">
	<path class="st1" d="M18.9,11.4c-2.3,0-4.1,1.7-4.1,3.7c0,1.3,0,5.2,0,6.4c0,2.1,1.8,3.7,4.1,3.7s4.1-1.7,4.1-3.7
		c0-1.3,0-5.2,0-6.4C22.9,13.1,21.1,11.4,18.9,11.4z M36.8,1c-5.6,0-13.9,0-19.5,0C8.3,1,1,8.8,1,18.4s7.3,17.3,16.2,17.3
		c5.6,0,13.9,0,19.5,0c9,0,16.2-7.8,16.2-17.4C53,8.8,45.8,1,36.8,1z M36.8,30.3H17.2c-6,0-10.8-5.4-10.8-11.9
		c0-6.6,4.9-11.9,10.8-11.9h19.5c6,0,10.8,5.4,10.8,11.9C47.6,24.9,42.8,30.3,36.8,30.3z M35.2,11.4c-2.3,0-4.1,1.7-4.1,3.7
		c0,1.3,0,5.2,0,6.4c0,2.1,1.8,3.7,4.1,3.7s4.1-1.7,4.1-3.7c0-1.3,0-5.2,0-6.4C39.3,13.1,37.4,11.4,35.2,11.4z"/>
	<path d="M240.9,25c0.5-0.1,7.3-2.3,7.3-2.3c1.8-0.5,3.4-2.4,2.4-4.8c-1.6-3.9-7-5.6-11.1-3.6c-4.4,2.1-6.3,7.4-4.1,11.8
		c2.1,4.3,7.4,6.2,11.6,4.2c1.5-0.8,1.8-1.9,1.3-3.1c-0.5-1.1-2-1.6-3-1.1c-1.4,0.8-3.3,0.5-4.6-0.4C240.5,25.4,240.4,25.1,240.9,25
		z M240.5,21.6c-1.3,0.4-1.4-0.6-1.1-1.4c0.4-0.9,1.1-1.7,2.1-2.1c1.4-0.7,2.9-0.5,4.1,0.1c0.4,0.2,1.5,1.3,0,1.8
		C244.4,20.5,241.7,21.3,240.5,21.6z M103,13.5c-4.9,0-8.8,4-8.8,8.8s4,8.8,8.8,8.8c4.9,0,8.8-4,8.8-8.8S107.9,13.5,103,13.5z
		 M103,26.5c-2.3,0-4.2-1.9-4.2-4.2s1.9-4.2,4.2-4.2c2.3,0,4.2,1.9,4.2,4.2S105.3,26.5,103,26.5z M79.2,6.1c-0.1,0-0.1,0-0.2,0h-0.1
		c-1.3,0-2,0-3.5,0c-3.8,0-6.9,3.1-6.9,6.9c0,1.9,0,3.3,0,4.3s0,1.8,0,2.5V28c0,1.9,1.5,3.4,3.4,3.4s3.4-1.5,3.4-3.4v-1.6
		c1.2,0.5,2.5,0.7,3.8,0.7c5.8,0,10.6-4.7,10.6-10.6S85.1,6.1,79.2,6.1z M79.2,21.7c-2.8,0-5.1-2.3-5.1-5.1s2.3-5.1,5.1-5.1
		c2.8,0,5.1,2.3,5.1,5.1S82.1,21.7,79.2,21.7z M125.4,13.5H121l0,0c-2.6,0-4.6,2.1-4.6,4.6v10.4c0,1.3,1,2.3,2.3,2.3s2.3-1,2.3-2.3
		v-6.2c0-1.1,0.4-2.2,1.2-3c0.8-0.8,1.9-1.2,2.9-1.2h0.2c1.3,0,2.3-1,2.3-2.3l0,0C127.7,14.5,126.6,13.5,125.4,13.5z M205.5,13.5
		c-4.9,0-8.8,4-8.8,8.8s4,8.8,8.8,8.8c4.9,0,8.8-4,8.8-8.8S210.4,13.5,205.5,13.5z M205.5,26.5c-2.3,0-4.2-1.9-4.2-4.2
		s1.9-4.2,4.2-4.2s4.2,1.9,4.2,4.2S207.8,26.5,205.5,26.5z M228.6,26.6c-1.5-0.3-2.6-1.1-2.6-3.2v-5.2h2.3c1.3,0,2.3-1,2.3-2.3
		s-1-2.3-2.3-2.3H226v-1.9c0-1.3-1-2.3-2.3-2.3l0,0c-1.3,0-2.3,1-2.3,2.3v1.9h-1.9c-1.3,0-2.3,1-2.3,2.3s1,2.3,2.3,2.3h1.9v5.2
		c0,4.3,2.4,7.5,6.8,7.8c1.4,0.1,2.4-0.8,2.6-2C230.8,27.9,230,26.9,228.6,26.6z M140.2,18.2c1.5,0.3,2.6-0.5,2.9-1.7
		c0.3-1.2-0.5-2.5-1.8-2.8c-2.8-0.7-6,0.1-8.3,2.4c-3.5,3.5-3.5,9,0,12.5c2.2,2.2,5.2,3,8.3,2.4c1.2-0.3,2-1.5,1.7-2.8
		s-1.5-2-2.8-1.8c-1.6,0.3-2.9,0-4-1.1l0,0c-1.6-1.6-1.6-4.3,0-5.9C137.4,18.3,138.7,17.9,140.2,18.2z M155.9,13.5
		c-4.9,0-8.8,4-8.8,8.8s4,8.8,8.8,8.8c4.9,0,8.8-4,8.8-8.8S160.8,13.5,155.9,13.5z M155.9,26.5c-2.3,0-4.2-1.9-4.2-4.2
		s1.9-4.2,4.2-4.2s4.2,1.9,4.2,4.2C160.1,24.6,158.2,26.5,155.9,26.5z M183.8,13.5L183.8,13.5h-4.7l0,0c-2.6,0-4.6,2.1-4.6,4.6v10.4
		c0,1.3,1,2.3,2.3,2.3s2.3-1,2.3-2.3v-6.2c0-2.3,1.9-4.2,4.2-4.2s4.2,1.9,4.2,4.2v6.2c0,1.3,1,2.3,2.3,2.3s2.3-1,2.3-2.3v-6.2
		C192.2,17.6,188.5,13.7,183.8,13.5z"/>
</g>
<path id="mark" class="st1" d="M18.9,11.4c-2.3,0-4.1,1.7-4.1,3.7c0,1.3,0,5.2,0,6.4c0,2.1,1.8,3.7,4.1,3.7s4.1-1.7,4.1-3.7
	c0-1.3,0-5.2,0-6.4C22.9,13.1,21.1,11.4,18.9,11.4z M36.8,1c-5.6,0-13.9,0-19.5,0C8.3,1,1,8.8,1,18.4s7.3,17.3,16.2,17.3
	c5.6,0,13.9,0,19.5,0c9,0,16.2-7.8,16.2-17.4C53,8.8,45.8,1,36.8,1z M36.8,30.3H17.2c-6,0-10.8-5.4-10.8-11.9
	c0-6.6,4.9-11.9,10.8-11.9h19.5c6,0,10.8,5.4,10.8,11.9C47.6,24.9,42.8,30.3,36.8,30.3z M35.2,11.4c-2.3,0-4.1,1.7-4.1,3.7
	c0,1.3,0,5.2,0,6.4c0,2.1,1.8,3.7,4.1,3.7s4.1-1.7,4.1-3.7c0-1.3,0-5.2,0-6.4C39.3,13.1,37.4,11.4,35.2,11.4z"/>
</svg>
