<?xml version="1.0" encoding="utf-8"?>
<!-- Generator: Adobe Illustrator 24.0.1, SVG Export Plug-In . SVG Version: 6.00 Build 0)  -->
<svg version="1.1" id="Layer_1" xmlns="http://www.w3.org/2000/svg" xmlns:xlink="http://www.w3.org/1999/xlink" x="0px" y="0px"
	 width="292.5px" height="181.7px" viewBox="0 0 292.5 181.7" style="enable-background:new 0 0 292.5 181.7;" xml:space="preserve"
	>
<style type="text/css">
	.st0{fill:#FFFFFF;stroke:#000000;stroke-width:1.2;stroke-miterlimit:10;}
	.st1{display:none;}
	.st2{display:inline;}
	.st3{fill:#20BDDD;}
	.st4{display:inline;fill:#20BDDD;}
	.st5{fill:#E86795;}
	.st6{fill:#000029;}
	.st7{fill:#FFFFFF;}
</style>
<g id="unused">
	<path class="st0" d="M268.3,168.8h-8.8c-0.6,0-1.1-0.5-1.1-1.1v-15c0-0.6,0.5-1.1,1.1-1.1h12.2c0.6,0,1.1,0.5,1.1,1.1v11.6
		c0,0.3-0.1,0.5-0.3,0.7l-3.5,3.4C268.8,168.7,268.6,168.8,268.3,168.8z"/>
	<g>
		<path d="M268.3,169.3v-4c0-0.5,0.4-1,1-1h4L268.3,169.3z"/>
	</g>
	<g>
		<g>
			<rect x="260.9" y="155" width="9.4" height="1.5"/>
		</g>
		<g>
			<rect x="260.9" y="158.9" width="9.4" height="1.5"/>
		</g>
		<g>
			<rect x="260.9" y="162.9" width="6.4" height="1.5"/>
		</g>
	</g>
</g>
<g id="data" class="st1">
	<path id="logomark" class="st2" d="M87,29.5h-5.3l0,0c-3.1,0-5.6,2.5-5.6,5.6v12.5c0,1.5,1.2,2.8,2.8,2.8c1.5,0,2.8-1.2,2.8-2.8
		v-7.4c0-1.3,0.5-2.6,1.5-3.6s2.2-1.5,3.5-1.5c0,0,0.2,0,0.3,0c1.5,0,2.8-1.2,2.8-2.8l0,0C89.8,30.8,88.5,29.5,87,29.5z M57.8,29.5
		c-5.9,0-10.6,4.7-10.6,10.6s4.7,10.6,10.6,10.6S68.4,46,68.4,40.1S63.7,29.5,57.8,29.5z M57.5,45.2c-2.8,0-5-2.3-5-5
		c0-2.8,2.3-5,5-5c2.8,0,5,2.3,5,5C62.6,42.9,60.3,45.2,57.5,45.2z M5.7,44.3L5.7,44.3c-0.5,3.7,2,7.1,5.7,7.7l0,0
		c3.7,0.5,7.1-2,7.7-5.7c0.1-0.4,0.1-0.8,0.1-1.1c-4.9-0.6-9.3-2.8-12.7-6C6.2,41.3,5.8,43.4,5.7,44.3z M22.2,2
		C11.1,2,2,11.1,2,22.2c0,11.2,9.1,20.2,20.2,20.2c11.2,0,20.2-9.1,20.2-20.2S33.4,2,22.2,2z M22.2,31.8c-5.3,0-9.6-4.3-9.6-9.6
		s4.3-9.6,9.6-9.6s9.6,4.3,9.6,9.6C31.8,27.5,27.5,31.8,22.2,31.8z M119,32.6c-4.1,4.1-4.1,10.9,0,15s10.9,4.1,15,0s4.1-10.9,0-15
		S123.2,28.5,119,32.6z M130.1,43.7c-2,2-5.2,2-7.1,0c-2-2-2-5.2,0-7.1c2-2,5.2-2,7.1,0C132.1,38.5,132.1,41.7,130.1,43.7z
		 M219,45.2c-1.8-0.4-3.2-1.3-3.2-3.8v-6.3h2.9c1.5,0,2.8-1.2,2.8-2.8c0-1.5-1.2-2.8-2.8-2.8h-2.9v-2.3c0-1.5-1.2-2.8-2.8-2.8l0,0
		c-1.5,0-2.8,1.2-2.8,2.8v2.3h-2c-1.5,0-2.8,1.2-2.8,2.8c0,1.5,1.2,2.8,2.8,2.8h2v6.3c0,5.1,2.9,9,8.1,9.3c1.6,0.1,2.9-0.9,3.1-2.4
		S220.7,45.5,219,45.2z M236.4,43.4c0.6-0.2,8.8-2.7,8.8-2.7c2.1-0.6,4.1-2.9,2.9-5.8c-1.9-4.7-8.4-6.7-13.3-4.3
		c-5.3,2.5-7.5,8.9-5,14.2c2.5,5.2,8.9,7.5,13.9,5.1c1.8-0.9,2.2-2.3,1.6-3.7c-0.6-1.4-2.4-1.9-3.6-1.4c-1.8,0.9-4.1,0.6-5.7-0.7
		C235.6,43.6,235.8,43.6,236.4,43.4z M234.6,37.7c0.5-1.1,1.4-2,2.5-2.5c1.6-0.8,3.5-0.7,4.9,0.2c0.5,0.3,1.8,1.6,0,2.2
		c-1.4,0.5-4.7,1.5-6.1,1.9C234.4,39.8,234.2,38.7,234.6,37.7z M190.1,29.5c-5.9,0-10.6,4.7-10.6,10.6s4.7,10.6,10.6,10.6
		c5.9,0,10.6-4.7,10.6-10.6C200.7,34.2,196,29.5,190.1,29.5z M190.1,45.2c-2.8,0-5-2.3-5-5c0-2.8,2.3-5,5-5c2.8,0,5,2.3,5,5
		C195.2,42.9,192.9,45.2,190.1,45.2z M106.6,35.2c1.9,0.3,3.1-0.6,3.4-2.1s-0.6-3-2.1-3.3c-3.4-0.8-7.2,0.1-9.9,2.8
		c-4.1,4.1-4.1,10.9,0,15c2.7,2.7,6.2,3.6,9.9,2.8c1.5-0.3,2.4-1.8,2.1-3.3s-1.8-2.4-3.3-2.1c-1.9,0.4-3.5-0.1-4.8-1.3l0,0
		c-2-2-2-5.2,0-7.1C103.2,35.3,104.7,34.8,106.6,35.2z M162.7,29.5L162.7,29.5h-5.6l0,0c-3.1,0-5.6,2.5-5.6,5.6v12.5
		c0,1.5,1.2,2.8,2.8,2.8s2.8-1.2,2.8-2.8v-7.5c0-2.8,2.3-5,5.1-5s5.1,2.3,5.1,5v7.5c0,1.5,1.2,2.8,2.8,2.8s2.8-1.2,2.8-2.8v-7.5
		C172.7,34.4,168.3,29.8,162.7,29.5z"/>
	<g id="_x5F_logo" class="st2">
		<path class="st3" d="M18.9,11.4c-2.3,0-4.1,1.7-4.1,3.7c0,1.3,0,5.2,0,6.4c0,2.1,1.8,3.7,4.1,3.7s4.1-1.7,4.1-3.7
			c0-1.3,0-5.2,0-6.4C22.9,13.1,21.1,11.4,18.9,11.4z M36.8,1c-5.6,0-13.9,0-19.5,0C8.3,1,1,8.8,1,18.4s7.3,17.3,16.2,17.3
			c5.6,0,13.9,0,19.5,0c9,0,16.2-7.8,16.2-17.4C53,8.8,45.8,1,36.8,1z M36.8,30.3H17.2c-6,0-10.8-5.4-10.8-11.9
			c0-6.6,4.9-11.9,10.8-11.9h19.5c6,0,10.8,5.4,10.8,11.9C47.6,24.9,42.8,30.3,36.8,30.3z M35.2,11.4c-2.3,0-4.1,1.7-4.1,3.7
			c0,1.3,0,5.2,0,6.4c0,2.1,1.8,3.7,4.1,3.7s4.1-1.7,4.1-3.7c0-1.3,0-5.2,0-6.4C39.3,13.1,37.4,11.4,35.2,11.4z"/>
		<path d="M240.9,25c0.5-0.1,7.3-2.3,7.3-2.3c1.8-0.5,3.4-2.4,2.4-4.8c-1.6-3.9-7-5.6-11.1-3.6c-4.4,2.1-6.3,7.4-4.1,11.8
			c2.1,4.3,7.4,6.2,11.6,4.2c1.5-0.8,1.8-1.9,1.3-3.1c-0.5-1.1-2-1.6-3-1.1c-1.4,0.8-3.3,0.5-4.6-0.4
			C240.5,25.4,240.4,25.1,240.9,25z M240.5,21.6c-1.3,0.4-1.4-0.6-1.1-1.4c0.4-0.9,1.1-1.7,2.1-2.1c1.4-0.7,2.9-0.5,4.1,0.1
			c0.4,0.2,1.5,1.3,0,1.8C244.4,20.5,241.7,21.3,240.5,21.6z M103,13.5c-4.9,0-8.8,4-8.8,8.8s4,8.8,8.8,8.8c4.9,0,8.8-4,8.8-8.8
			S107.9,13.5,103,13.5z M103,26.5c-2.3,0-4.2-1.9-4.2-4.2s1.9-4.2,4.2-4.2c2.3,0,4.2,1.9,4.2,4.2S105.3,26.5,103,26.5z M79.2,6.1
			c-0.1,0-0.1,0-0.2,0h-0.1c-1.3,0-2,0-3.5,0c-3.8,0-6.9,3.1-6.9,6.9c0,1.9,0,3.3,0,4.3s0,1.8,0,2.5V28c0,1.9,1.5,3.4,3.4,3.4
			s3.4-1.5,3.4-3.4v-1.6c1.2,0.5,2.5,0.7,3.8,0.7c5.8,0,10.6-4.7,10.6-10.6S85.1,6.1,79.2,6.1z M79.2,21.7c-2.8,0-5.1-2.3-5.1-5.1
			s2.3-5.1,5.1-5.1c2.8,0,5.1,2.3,5.1,5.1S82.1,21.7,79.2,21.7z M125.4,13.5H121l0,0c-2.6,0-4.6,2.1-4.6,4.6v10.4
			c0,1.3,1,2.3,2.3,2.3s2.3-1,2.3-2.3v-6.2c0-1.1,0.4-2.2,1.2-3c0.8-0.8,1.9-1.2,2.9-1.2h0.2c1.3,0,2.3-1,2.3-2.3l0,0
			C127.7,14.5,126.6,13.5,125.4,13.5z M205.5,13.5c-4.9,0-8.8,4-8.8,8.8s4,8.8,8.8,8.8c4.9,0,8.8-4,8.8-8.8S210.4,13.5,205.5,13.5z
			 M205.5,26.5c-2.3,0-4.2-1.9-4.2-4.2s1.9-4.2,4.2-4.2s4.2,1.9,4.2,4.2S207.8,26.5,205.5,26.5z M228.6,26.6
			c-1.5-0.3-2.6-1.1-2.6-3.2v-5.2h2.3c1.3,0,2.3-1,2.3-2.3s-1-2.3-2.3-2.3H226v-1.9c0-1.3-1-2.3-2.3-2.3l0,0c-1.3,0-2.3,1-2.3,2.3
			v1.9h-1.9c-1.3,0-2.3,1-2.3,2.3s1,2.3,2.3,2.3h1.9v5.2c0,4.3,2.4,7.5,6.8,7.8c1.4,0.1,2.4-0.8,2.6-2
			C230.8,27.9,230,26.9,228.6,26.6z M140.2,18.2c1.5,0.3,2.6-0.5,2.9-1.7c0.3-1.2-0.5-2.5-1.8-2.8c-2.8-0.7-6,0.1-8.3,2.4
			c-3.5,3.5-3.5,9,0,12.5c2.2,2.2,5.2,3,8.3,2.4c1.2-0.3,2-1.5,1.7-2.8s-1.5-2-2.8-1.8c-1.6,0.3-2.9,0-4-1.1l0,0
			c-1.6-1.6-1.6-4.3,0-5.9C137.4,18.3,138.7,17.9,140.2,18.2z M155.9,13.5c-4.9,0-8.8,4-8.8,8.8s4,8.8,8.8,8.8c4.9,0,8.8-4,8.8-8.8
			S160.8,13.5,155.9,13.5z M155.9,26.5c-2.3,0-4.2-1.9-4.2-4.2s1.9-4.2,4.2-4.2s4.2,1.9,4.2,4.2C160.1,24.6,158.2,26.5,155.9,26.5z
			 M183.8,13.5L183.8,13.5h-4.7l0,0c-2.6,0-4.6,2.1-4.6,4.6v10.4c0,1.3,1,2.3,2.3,2.3s2.3-1,2.3-2.3v-6.2c0-2.3,1.9-4.2,4.2-4.2
			s4.2,1.9,4.2,4.2v6.2c0,1.3,1,2.3,2.3,2.3s2.3-1,2.3-2.3v-6.2C192.2,17.6,188.5,13.7,183.8,13.5z"/>
	</g>
	<path id="a" class="st2" d="M12.8,26h0.1c0.4,0,0.8-0.3,0.9-0.8c0.1-0.5,0.2-1,0.2-1.6c0.2-1.4,0.4-3,0.7-4.1
		c0.1-0.3,0.1-0.6,0.2-0.9c0.3-1.6,0.8-3.6,1.5-5.7c0.2-0.5-0.1-1-0.5-1.1c-0.5-0.2-1,0.1-1.2,0.5c-0.8,2.2-1.3,4.3-1.6,5.9
		c-0.1,0.3-0.1,0.6-0.2,0.9c-0.3,1.1-0.5,2.8-0.7,4.2C12.1,24,12.1,24.5,12,25S12.3,25.9,12.8,26z M56.4,40.4c0.5,0.1,1-0.2,1.1-0.7
		c0.8-3.1,3.5-5.2,6.9-5.2s6.1,2.1,6.9,5.2c0.1,0.4,0.5,0.7,0.9,0.7c0.1,0,0.1,0,0.2,0c0.5-0.1,0.8-0.6,0.7-1.1
		c-1-3.9-4.5-6.5-8.7-6.5s-7.7,2.6-8.7,6.5C55.6,39.8,55.9,40.3,56.4,40.4z M32.9,1c-5.8-0.2-10.4,1.2-13.7,4.4
		c-0.4,0.3-0.4,0.9,0,1.3c0.3,0.4,0.9,0.4,1.3,0c2.9-2.8,7.1-4.1,12.4-3.9C38.6,3,44.1,5.5,47.7,9.4c2.9,3.2,4.4,7.1,4.2,11
		c-0.3,5.6-4.1,12.2-20.2,11.5c-4.7-0.2-9-0.9-12.7-1.5c-6.3-1.1-11.3-1.9-15.5,0.1c-2.1,1-2.7,3-2.5,4.6c0.1,0.4,0.5,0.7,0.9,0.7
		c0.1,0,0.1,0,0.2,0c0.5-0.1,0.8-0.5,0.7-1c-0.1-0.7,0.1-2,1.5-2.7c3.7-1.7,8.4-0.9,14.4,0.1c3.8,0.6,8.1,1.4,12.9,1.6
		c13.7,0.6,21.6-4.1,22.1-13.2c0.2-4.4-1.4-8.8-4.7-12.3C45.1,3.9,39.2,1.3,32.9,1z M11.4,34.8c-0.5-0.1-1,0.2-1,0.7
		C9.6,40.1,8,46.2,6.6,48.4c-0.3,0.5-0.9,0.9-1.4,1c-0.3,0-0.5,0-0.7-0.2c-0.4-0.3-0.9-0.3-1.3,0c-0.3,0.4-0.3,0.9,0,1.3
		C3.7,51,4.3,51.2,5,51.2c0.1,0,0.2,0,0.3,0c1-0.1,2-0.8,2.7-1.8c1.7-2.6,3.3-9.5,4-13.5C12.2,35.3,11.9,34.9,11.4,34.8z
		 M128.2,40.4c0.5,0.1,1-0.2,1.1-0.7c0.8-3.1,3.5-5.2,6.9-5.2s6.1,2.1,6.9,5.2c0.1,0.4,0.5,0.7,0.9,0.7c0.1,0,0.1,0,0.2,0
		c0.5-0.1,0.8-0.6,0.7-1.1c-1-3.9-4.5-6.5-8.7-6.5s-7.7,2.6-8.7,6.5C127.4,39.8,127.7,40.3,128.2,40.4z M216.4,31.4
		c0.5,0,0.9-0.4,0.9-0.9v-3c0-0.5-0.4-0.9-0.9-0.9s-0.9,0.4-0.9,0.9v3C215.5,31,215.9,31.4,216.4,31.4z M219.6,34.5h3.3
		c0.5,0,0.9-0.4,0.9-0.9s-0.4-0.9-0.9-0.9h-3.3c-0.5,0-0.9,0.4-0.9,0.9S219.1,34.5,219.6,34.5z M72.4,43.5c-0.5-0.1-1,0.2-1.1,0.7
		c-0.7,2.9-3.4,4.8-7,4.8s-6.3-1.9-7-4.8c-0.1-0.5-0.6-0.8-1.1-0.7s-0.8,0.6-0.7,1.1c0.9,3.8,4.3,6.2,8.7,6.2s7.9-2.4,8.7-6.2
		C73.2,44,72.9,43.6,72.4,43.5z M186,40.4c0.5,0.1,1-0.2,1.1-0.7c0.8-3.1,3.5-5.2,6.9-5.2s6.1,2.1,6.9,5.2c0.1,0.4,0.5,0.7,0.9,0.7
		c0.1,0,0.1,0,0.2,0c0.5-0.1,0.8-0.6,0.7-1.1c-1-3.9-4.5-6.5-8.7-6.5s-7.7,2.6-8.7,6.5C185.2,39.8,185.5,40.3,186,40.4z M202.1,43.5
		c-0.5-0.1-1,0.2-1.1,0.7c-0.7,2.9-3.4,4.8-7,4.8s-6.3-1.9-7-4.8c-0.1-0.5-0.6-0.8-1.1-0.7s-0.8,0.6-0.7,1.1
		c0.9,3.8,4.3,6.2,8.7,6.2s7.9-2.4,8.7-6.2C202.9,44,202.6,43.6,202.1,43.5z M83.2,37.5c-0.5,0-0.9,0.4-0.9,0.9V49
		c0,0.5,0.4,0.9,0.9,0.9s0.9-0.4,0.9-0.9V38.3C84.1,37.8,83.7,37.5,83.2,37.5z M213.2,32.7H210c-0.5,0-0.9,0.4-0.9,0.9
		s0.4,0.9,0.9,0.9h3.3c0.5,0,0.9-0.4,0.9-0.9S213.7,32.7,213.2,32.7z M224.4,48.9c-4.2,0-7.1-2.8-7.1-6.8v-5.5
		c0-0.5-0.4-0.9-0.9-0.9s-0.9,0.4-0.9,0.9v5.5c0,5,3.8,8.6,8.9,8.6c0.5,0,0.9-0.4,0.9-0.9S224.9,48.9,224.4,48.9z M250.1,35.9
		c-1.5-2.4-4-3.7-7.2-3.7c-2.4,0-4.7,1.1-6.4,3.2c-1.6,1.9-2.5,4.4-2.5,6.8c0,5,3.8,8.6,8.9,8.6c1.2,0,2.4-0.2,3.5-0.6
		c0.5-0.2,0.7-0.7,0.5-1.1c-0.2-0.5-0.7-0.7-1.2-0.5c-0.9,0.3-1.8,0.5-2.9,0.5c-4.2,0-7.1-2.8-7.1-6.8c0-3.9,2.9-8.2,7.1-8.2
		c2.6,0,4.5,1,5.7,2.8c0.7,1.1,0.8,2.1,0.4,2.9c-0.4,0.7-1.3,1-2.6,1H243c-0.5,0-0.9,0.4-0.9,0.9s0.4,0.9,0.9,0.9h3.3
		c2.6,0,3.7-1.2,4.2-1.9C251.3,39.2,251.1,37.5,250.1,35.9z M167.7,32.2c-1.7,0-3.3,0.4-4.7,1.2c-0.4,0.2-0.6,0.8-0.3,1.2
		c0.2,0.4,0.8,0.6,1.2,0.3c1.1-0.6,2.4-0.9,3.8-0.9c4.2,0,7.1,2.8,7.1,6.8v8.8c0,0.5,0.4,0.9,0.9,0.9s0.9-0.4,0.9-0.9v-8.8
		C176.6,35.8,172.9,32.2,167.7,32.2z M159.6,37.2c-0.5,0-0.9,0.4-0.9,0.9v11.5c0,0.5,0.4,0.9,0.9,0.9s0.9-0.4,0.9-0.9V38
		C160.5,37.6,160.1,37.2,159.6,37.2z M111.2,32.5c-4.8,0-8.9,4.4-8.9,9.7c0,5,3.8,8.6,8.9,8.6c2.6,0,5-0.9,6.7-2.7
		c0.3-0.4,0.3-0.9,0-1.3c-0.4-0.3-0.9-0.3-1.3,0c-1.3,1.4-3.2,2.1-5.3,2.1c-4.2,0-7.1-2.8-7.1-6.8c0-4.3,3.3-7.9,7.1-7.9
		c3.3,0,6,2.1,6.9,5.5c0.1,0.5,0.6,0.8,1.1,0.7s0.8-0.6,0.7-1.1C118.8,35.2,115.3,32.5,111.2,32.5z M90.6,32.2
		c-1.9,0-3.7,0.5-5.2,1.4c-0.4,0.3-0.5,0.8-0.3,1.2c0.3,0.4,0.8,0.5,1.3,0.3c1.2-0.8,2.6-1.2,4.2-1.2c1.8,0,3.4,0.5,4.7,1.5
		c0.2,0.1,0.4,0.2,0.6,0.2c0.3,0,0.5-0.1,0.7-0.3c0.3-0.4,0.2-0.9-0.1-1.2C94.8,32.8,92.8,32.2,90.6,32.2z M144.2,43.5
		c-0.5-0.1-1,0.2-1.1,0.7c-0.7,2.9-3.4,4.8-7,4.8s-6.3-1.9-7-4.8c-0.1-0.5-0.6-0.8-1.1-0.7c-0.5,0.1-0.8,0.6-0.7,1.1
		c0.9,3.8,4.3,6.2,8.7,6.2c4.4,0,7.9-2.4,8.7-6.2C145,44,144.7,43.6,144.2,43.5z"/>
	<path id="mark" class="st4" d="M18.9,11.4c-2.3,0-4.1,1.7-4.1,3.7c0,1.3,0,5.2,0,6.4c0,2.1,1.8,3.7,4.1,3.7s4.1-1.7,4.1-3.7
		c0-1.3,0-5.2,0-6.4C22.9,13.1,21.1,11.4,18.9,11.4z M36.8,1c-5.6,0-13.9,0-19.5,0C8.3,1,1,8.8,1,18.4s7.3,17.3,16.2,17.3
		c5.6,0,13.9,0,19.5,0c9,0,16.2-7.8,16.2-17.4C53,8.8,45.8,1,36.8,1z M36.8,30.3H17.2c-6,0-10.8-5.4-10.8-11.9
		c0-6.6,4.9-11.9,10.8-11.9h19.5c6,0,10.8,5.4,10.8,11.9C47.6,24.9,42.8,30.3,36.8,30.3z M35.2,11.4c-2.3,0-4.1,1.7-4.1,3.7
		c0,1.3,0,5.2,0,6.4c0,2.1,1.8,3.7,4.1,3.7s4.1-1.7,4.1-3.7c0-1.3,0-5.2,0-6.4C39.3,13.1,37.4,11.4,35.2,11.4z"/>
	<g id="characotor-icon" class="st2">
		<path class="st5" d="M20,12.3c-0.1,1-1,5.7-1.1,7.8c0.9-0.3,5.1-2,5.5-2.8l0.7-6.7C25.1,9.6,21.8,11.5,20,12.3z M35.8,7.6
			c-2,0.1-4.2,0-5,1.5C29.3,12,29,19.3,28.3,22.9c0,0,7.1-4.3,7.1-5C35.4,14.9,36.7,7.2,35.8,7.6z M4.8,31.4
			c1.8-1.9,6.4-6.8,8.6-8.8c0.2-0.7,0.9-3.1,0.8-5.7C11.5,16.9,4.6,27.1,4.8,31.4z M46.7,6c-1.5-0.2-4.7,0.5-5.2,1.1
			c-0.9,4.1-1.9,14.8-2,17.8c1.9-2,6.5-4.7,6.8-5.9C46,18.1,47.3,6.1,46.7,6z M74.4,15.3C74,20.8,73,30.9,72.9,35.6
			c0,0,4.6,7.6,4.5,7.5c0,0,2.5-22,1.5-23.8L74.4,15.3z M52.5,6.7c-0.5,6.8-1.6,13.2-1.3,20.6c1.3-1,4.8-0.4,4.8-3.7
			c0.7-6.7,1.4-20.3,1.4-20.3C56,4.1,52.5,3.6,52.5,6.7z M87.9,38.5c-0.6-2.3-2.4-6.5-3.5-9.3c-0.1,0-1.3,13-0.9,18.7
			C86.2,45.5,88.1,42.3,87.9,38.5z M62.9,7.3C61.5,12,62,17.5,61.2,23.4c0.6,3.1,3,3.4,5.8,5.9c0.1-2.1,2.2-17,1.4-17.8
			C67.5,10.7,64.4,8.4,62.9,7.3z"/>
		<path class="st6" d="M28.6,41.8c0-1.2-0.9-2.3-1.9-2.2c-1.1,0.1-1.8,0.8-1.7,2c0,1.3,0.8,2.3,1.7,2.3
			C27.6,43.9,28.6,42.8,28.6,41.8z M97.3,44.2c-1.8-2.4-5.7-2.4-8.2-3.5C88,28,79.8,17.2,68.7,10.7C65.5,8.1,61,5.6,59,1
			C37.1,10.7,14.6,2.9,4.3,29.5c-10.8,27.3,6.1,44.7,28.2,51.8c18.3,2.5,43.1-1.5,52.4-15.7c5-4.9,14.7-7,14-15.8
			C99,47.5,98.6,45.7,97.3,44.2z M84.5,32c0.1,0,2.3,4.4,3,6.7c0.3,1-0.1,2.2-0.5,3.3c-0.6,1.8-1.6,3.1-3.3,4.6
			C83.4,41.3,84.4,36.9,84.5,32z M79.6,23.1c0-0.4,0.1-0.8,0.2-1.4c0.6,0.7,1.2,1.1,1.6,1.7c1.7,2.5,2.7,5.1,2.2,8.3
			c-0.3,2.5-1,13.8-1.4,16.9c-0.1,1.1-1.2,1.4-2.1,2c-0.3-0.6-0.5-1-0.8-1.5c-1.4-3.2-1.4-6.5-1-9.8C78.7,36.5,79.4,25.8,79.6,23.1z
			 M74.3,22.7c0.1-1.6,0.2-5,0.3-5.9c1,0.9,2.6,2.3,3.4,3c0,0,0.7,1,0.6,2.4c-0.3,3.9-1.3,16.6-1.5,19c-0.1,0-2.4-4.2-2.8-4.6
			c-1-0.9-1-1.9-0.9-3C73.7,30,74,26.3,74.3,22.7z M68.9,14.9c0.1-0.8,0.3-1.5,0.4-2.4c1.4,1,2.6,1.8,3.7,2.6
			c0.2,0.2,0.5,0.6,0.5,0.9c-0.3,4.5-1.1,17.3-1.2,17.7c-0.1,0-2-2-3-2.9c-1.3-1.1-1.7-2.1-1.4-3.9C68.4,23,68.5,19,68.9,14.9z
			 M62.8,8.2c0-0.1,4,2.7,4.8,3.6c0.2,3.2-0.8,10.8-1.1,16.2c-2.1-0.8-4-2.7-4.6-4.2C61.7,21.7,63.1,13.4,62.8,8.2z M58.5,3
			c5.6,5.4,1.5,15.7,1.9,20.9c-1.5-0.5-2.4-0.1-3.7-0.2C57.4,16.9,57.3,10.1,58.5,3z M53,6c0.3-1.4,2.2-1.5,4-2.1
			c-0.7,5-1,15.6-1.4,19.9c-0.8,1.6-2,2.9-4,2.9C51.3,22.4,52.6,9.2,53,6z M47.1,14.4c0.3-2,0.1-5.4,0.9-8c0.8-0.6,4.1-1.4,3.7,0.1
			c-0.2,2.4-1,14.1-1.5,18.7c-0.1,0-0.1,0-0.2,0C48.7,22.2,46.2,18.5,47.1,14.4z M42.9,7c6-2.6,2.5,6.5,2.9,11.1
			c-0.7,2.7-3,3-5.5,5.3C40.8,18.8,40.5,11.1,42.9,7z M36.8,8.7c0.1-0.5,0.2-0.9,0.8-0.9c0.8,0,1.5-0.1,2.3-0.2
			c1.2-0.2,1,0.6,0.9,1.2c-0.1,1.4-1.2,9.9-1.6,12.8c-0.1,0.4-0.2,0.8-0.4,1.1c-0.1,0-2.1-3.8-2.6-5.8C35.9,15.5,36.6,10,36.8,8.7z
			 M30.7,11.2C31,9.1,31,9.1,33.1,8.6c0.5-0.1,1-0.3,1.5-0.4c1-0.2,1.2-0.1,1.1,1c-0.1,1.2-0.6,5.2-0.6,6.1c0,1.2-0.1,2.3-1.3,3
			c-1.5,1-4.6,3.1-4.7,3.1c0.2-1.5,0.3-2.9,0.5-4.4C30,15.1,30.4,13.2,30.7,11.2z M26.1,10.5c0-0.1,0.3-0.3,0.5-0.3
			c1-0.2,1.9-0.4,2.9-0.7c0.2,1.8-0.6,7.3-1.6,10.6c-0.1,0-0.2,0-0.2,0c-0.5-1.1-0.9-2.3-2-3.1c-0.1-0.1-0.3-0.3-0.3-0.4
			C25.7,14.6,25.9,12.5,26.1,10.5z M19.6,18.3c0.8-2.9-0.8-6.2,3.9-7c0.7-0.3,1.2-0.4,1.1,1.1c-0.6,1.2,0.7,4.5-2,5.4
			C22,17.8,20,19.9,19.6,18.3z M14.7,18.7c0.1-2.3,1.7-4.2,4.2-5.2c0.2,2.8,0.1,7-4.2,8c-0.1,0-0.2,0-0.3-0.1
			C14.5,20.6,14.7,19.7,14.7,18.7z M13.6,17.8c-0.2,1.1-0.3,2.1-0.5,3.2C13,21.4,13,21.8,13,22.2c0,0.2-0.1,0.5-0.2,0.6
			c-0.7,0.6-1.4,1.1-2,1.7c-1.2,1.1-2.3,2.3-3.5,3.4c-0.7,0.7-1.2,1.4-2,2.3C5.6,27.4,11.8,18.1,13.6,17.8z M92.8,59
			c-8.8,6.4-5.9,1.3-9.1,3.3C81.2,75.4,57,80.8,48,80.7C3,83.9-16.6,32.1,24.5,18.5c2,1.7,1.6,2.7,3.2,5.6c2.4,0.1,5.3-5.6,7.8-4.8
			c1.4,1.5,1.8,6.9,4.6,5.8c7.3-6.4,5.8-3.9,10.1,2.7c1.2,1,5.9-1.7,6.8-2.4c3.9-1.6,9,4.8,12.1,7.5c13.2,13.5,5.5,29.3,18.5,10.4
			c3.6-1.5,10.3,0.8,9.7,5.9C97.8,53.1,96.1,56.3,92.8,59z M54.9,41.6c-1.3,0-2.1,0.8-2.1,2.1c0,1.5,0.6,2.1,2.1,2.1
			c1,0,1.6-0.8,1.6-2C56.4,42.2,55.9,41.5,54.9,41.6z M46.3,66.4c-4.5,1.4-15.6,0.5-19-3.6c-1.7,5.5,15.7,5,19.3,5.7
			C47.1,68.5,48.8,65.7,46.3,66.4z M32.7,54c0-0.3,0.2-0.7,0.1-0.9c-0.8-1.6-0.1-3.3,1.6-3.6c6.3-1.1,4.4,8.1,6.4,4.6
			c0.4-3.1-2.2-5.9-5.7-5.8c-2.3,0-3.9,1.5-3.9,3.8c0,0.6,0.2,1.3,0.4,1.8C31.7,54,32.3,54,32.7,54z"/>
	</g>
	<path id="note" class="st2" d="M14.4,1H2.6C1.7,1,1,1.7,1,2.6v14.8C1,18.3,1.7,19,2.6,19h8.5c0.4,0,0.8-0.2,1.1-0.5l3.4-3.4
		c0.5-0.5,0.3-1.2-0.5-1.2H12c-0.5,0-0.9,0.4-0.9,1v2.9l0,0H2.6c-0.2,0-0.4-0.2-0.4-0.4V2.6c0-0.2,0.2-0.4,0.4-0.4h11.8
		c0.2,0,0.4,0.2,0.4,0.4v9.5c0,0.3,0.3,0.6,0.6,0.6s0.6-0.3,0.6-0.6V2.6C16,1.7,15.3,1,14.4,1z M12.7,9.4c0-0.4-0.3-0.7-0.7-0.7H4.7
		C4.3,8.7,3.9,9,3.9,9.4s0.3,0.7,0.7,0.7H12C12.4,10.2,12.7,9.8,12.7,9.4z M4.7,12.5c-0.4,0-0.7,0.3-0.7,0.7S4.3,14,4.7,14h4.4
		c0.4,0,0.7-0.3,0.7-0.7s-0.3-0.7-0.7-0.7H4.7V12.5z M12,4.8H4.7C4.3,4.8,4,5.1,4,5.5s0.3,0.7,0.7,0.7H12c0.4,0,0.7-0.3,0.7-0.7
		S12.4,4.8,12,4.8z"/>
</g>
<path id="svg-logo_1_" d="M55.6,21c-4.2,0-7.7,2.8-8.6,6.7c-0.1,0.5,0.2,1,0.7,1.1s1-0.2,1.1-0.7c0.7-3.1,3.5-5.2,6.8-5.2
	s6.1,2.2,6.8,5.2c0.1,0.4,0.5,0.7,0.9,0.7c0.1,0,0.1,0,0.2,0c0.5-0.1,0.8-0.6,0.7-1.1C63.3,23.8,59.7,21,55.6,21z M63.5,32.1
	c-0.5-0.1-1,0.2-1.1,0.7c-0.7,3.1-3.5,5.2-6.8,5.2s-6.1-2.2-6.8-5.2c-0.1-0.5-0.6-0.8-1.1-0.7s-0.8,0.6-0.7,1.1
	c0.9,3.9,4.5,6.7,8.6,6.7s7.7-2.8,8.6-6.7C64.3,32.7,64,32.2,63.5,32.1z M22.9,1c-7.3,0-12.6,5.2-12.6,12.3v11.3
	c0,0.5,0.4,0.9,0.9,0.9s0.9-0.4,0.9-0.9V13.3c0-6.1,4.4-10.4,10.7-10.4c7.1,0,12.9,5.8,12.9,12.9S30,28.7,22.9,28.7h-6.6
	c-0.5,0-0.9,0.4-0.9,0.9s0.4,0.9,0.9,0.9h6.6c8.1,0,14.8-6.6,14.8-14.8S31.1,1,22.9,1z M75.8,26.8c-0.5,0-0.9,0.4-0.9,0.9v10.4
	c0,0.5,0.4,0.9,0.9,0.9s0.9-0.4,0.9-0.9V27.8C76.8,27.3,76.3,26.8,75.8,26.8z M6.3,28.7H1.9c-0.5,0-0.9,0.4-0.9,0.9s0.4,0.9,0.9,0.9
	h4.3c0.5,0,0.9-0.4,0.9-0.9S6.8,28.7,6.3,28.7z M11.3,33.7c-0.5,0-0.9,0.4-0.9,0.9V39c0,0.5,0.4,0.9,0.9,0.9s0.9-0.4,0.9-0.9v-4.3
	C12.2,34.1,11.8,33.7,11.3,33.7z M216.8,22.7h3.4c0.5,0,0.9-0.4,0.9-0.9s-0.4-0.9-0.9-0.9h-3.4c-0.5,0-0.9,0.4-0.9,0.9
	C215.9,22.3,216.3,22.7,216.8,22.7z M213.5,19.5c0.5,0,0.9-0.4,0.9-0.9v-3.2c0-0.5-0.4-0.9-0.9-0.9s-0.9,0.4-0.9,0.9v3.2
	C212.6,19.1,213,19.5,213.5,19.5z M89.4,22.3c-1.6-1.3-3.7-2-6-2c-2,0-3.8,0.5-5.3,1.5c-0.4,0.3-0.6,0.9-0.3,1.3
	c0.3,0.4,0.9,0.6,1.3,0.3c1.2-0.8,2.7-1.2,4.3-1.2c1.9,0,3.5,0.5,4.8,1.6c0.2,0.1,0.4,0.2,0.6,0.2c0.3,0,0.5-0.1,0.7-0.4
	C89.9,23.3,89.8,22.7,89.4,22.3z M141.8,32.1c-0.5-0.1-1,0.2-1.1,0.7c-0.7,3.1-3.5,5.2-6.8,5.2s-6.1-2.2-6.8-5.2
	c-0.1-0.5-0.6-0.8-1.1-0.7s-0.8,0.6-0.7,1.1c0.9,3.9,4.5,6.7,8.6,6.7c4.2,0,7.7-2.8,8.6-6.7C142.6,32.7,142.3,32.2,141.8,32.1z
	 M190.5,21c-4.2,0-7.7,2.8-8.6,6.7c-0.1,0.5,0.2,1,0.7,1.1s1-0.2,1.1-0.7c0.7-3.1,3.5-5.2,6.8-5.2s6.1,2.2,6.8,5.2
	c0.1,0.4,0.5,0.7,0.9,0.7c0.1,0,0.1,0,0.2,0c0.5-0.1,0.8-0.6,0.7-1.1C198.2,23.8,194.7,21,190.5,21z M210.3,20.9h-3.4
	c-0.5,0-0.9,0.4-0.9,0.9s0.4,0.9,0.9,0.9h3.4c0.5,0,0.9-0.4,0.9-0.9S210.8,20.9,210.3,20.9z M221.8,38c-4.3,0-7.4-2.9-7.4-7.2V25
	c0-0.5-0.4-0.9-0.9-0.9s-0.9,0.4-0.9,0.9v5.8c0,5.2,3.9,9,9.2,9c0.5,0,0.9-0.4,0.9-0.9C222.8,38.5,222.4,38,221.8,38z M248.1,24.8
	c-1.5-2.5-4-3.8-7.2-3.8c-5,0-9.1,4.2-9.1,9.5s4.1,9.5,9.1,9.5c1.7,0,3.4-0.5,4.9-1.5c0.4-0.3,0.5-0.9,0.3-1.3
	c-0.3-0.4-0.9-0.5-1.3-0.3c-1.1,0.8-2.5,1.2-3.8,1.2c-4,0-7.2-3.4-7.2-7.6s3.2-7.6,7.2-7.6c2.6,0,4.5,1,5.6,2.9
	c0.7,1.1,0.8,2.2,0.4,2.9c-0.4,0.7-1.3,1-2.5,1h-3.3c-0.5,0-0.9,0.4-0.9,0.9s0.4,0.9,0.9,0.9h3.3c2.7,0,3.8-1.3,4.2-2
	C249.3,28.2,249.1,26.4,248.1,24.8z M198.4,32.1c-0.5-0.1-1,0.2-1.1,0.7c-0.7,3.1-3.5,5.2-6.8,5.2s-6.1-2.2-6.8-5.2
	c-0.1-0.5-0.6-0.8-1.1-0.7s-0.8,0.6-0.7,1.1c0.9,3.9,4.5,6.7,8.6,6.7c4.2,0,7.7-2.8,8.6-6.7C199.3,32.7,198.9,32.2,198.4,32.1z
	 M133.8,21c-4.2,0-7.7,2.8-8.6,6.7c-0.1,0.5,0.2,1,0.7,1.1s1-0.2,1.1-0.7c0.7-3.1,3.5-5.2,6.8-5.2s6.1,2.2,6.8,5.2
	c0.1,0.4,0.5,0.7,0.9,0.7c0.1,0,0.1,0,0.2,0c0.5-0.1,0.8-0.6,0.7-1.1C141.6,23.8,138,21,133.8,21z M154.8,26.8
	c-0.5,0-0.9,0.4-0.9,0.9v10.9c0,0.5,0.4,0.9,0.9,0.9s0.9-0.4,0.9-0.9V27.8C155.8,27.3,155.4,26.8,154.8,26.8z M106.4,22.9
	c2.8,0,5.4,1.7,6.5,4.4c0.2,0.5,0.8,0.7,1.2,0.5c0.5-0.2,0.7-0.8,0.5-1.2c-1.5-3.4-4.7-5.5-8.2-5.5c-5,0-9.1,4.2-9.1,9.5
	s4.1,9.5,9.1,9.5c3.5,0,6.8-2.2,8.2-5.5c0.2-0.5,0-1-0.5-1.2s-1,0-1.2,0.5c-1.2,2.7-3.7,4.4-6.5,4.4c-4,0-7.2-3.4-7.2-7.6
	S102.5,22.9,106.4,22.9z M163.2,20.3c-1.8,0-3.5,0.4-4.9,1.2c-0.4,0.3-0.6,0.8-0.3,1.3s0.8,0.6,1.3,0.3c1.1-0.7,2.5-1,4-1
	c4.3,0,7.4,2.9,7.4,7.2v9.3c0,0.5,0.4,0.9,0.9,0.9s0.9-0.4,0.9-0.9v-9.3C172.4,24.1,168.5,20.3,163.2,20.3z"/>
<g id="svg-logo-symbol">
	<circle cx="24.5" cy="24.5" r="23.5"/>
	<path class="st7" d="M25.6,14.7c-4.5,0-7.7,3.2-7.7,7.5v6.9c0,0.3,0.3,0.6,0.6,0.6s0.6-0.3,0.6-0.6v-6.9c0-3.7,2.7-6.4,6.5-6.4
		c4.3,0,7.9,3.5,7.9,7.9s-3.5,7.9-7.9,7.9h-4c-0.3,0-0.6,0.3-0.6,0.6c0,0.3,0.3,0.6,0.6,0.6h4c5,0,9-4.1,9-9S30.6,14.7,25.6,14.7z
		 M15.4,31.6h-2.7c-0.3,0-0.6,0.3-0.6,0.6c0,0.3,0.3,0.6,0.6,0.6h2.7c0.3,0,0.6-0.3,0.6-0.6C16,31.9,15.8,31.6,15.4,31.6z
		 M18.5,34.7c-0.3,0-0.6,0.3-0.6,0.6v2.7c0,0.3,0.3,0.6,0.6,0.6s0.6-0.3,0.6-0.6v-2.7C19.1,34.9,18.8,34.7,18.5,34.7z"/>
</g>
</svg>
