<?xml version="1.0" encoding="utf-8"?>
<!-- Generator: Adobe Illustrator 24.0.1, SVG Export Plug-In . SVG Version: 6.00 Build 0)  -->
<svg version="1.1" id="Layer_1" xmlns="http://www.w3.org/2000/svg" xmlns:xlink="http://www.w3.org/1999/xlink" x="0px" y="0px"
	 width="252px" height="54px" viewBox="0 0 252 54" style="enable-background:new 0 0 252 54;" xml:space="preserve">
<style type="text/css">
	.st0{display:none;}
	.st1{fill:#20BDDD;}
</style>
<path class="st0" d="M87,29.5h-5.3l0,0c-3.1,0-5.6,2.5-5.6,5.6v12.5c0,1.5,1.2,2.8,2.8,2.8c1.5,0,2.8-1.2,2.8-2.8v-7.4
	c0-1.3,0.5-2.6,1.5-3.6s2.2-1.5,3.5-1.5c0,0,0.2,0,0.3,0c1.5,0,2.8-1.2,2.8-2.8l0,0C89.8,30.8,88.5,29.5,87,29.5z M57.8,29.5
	c-5.9,0-10.6,4.7-10.6,10.6s4.7,10.6,10.6,10.6S68.4,46,68.4,40.1S63.7,29.5,57.8,29.5z M57.5,45.2c-2.8,0-5-2.3-5-5
	c0-2.8,2.3-5,5-5c2.8,0,5,2.3,5,5C62.6,42.9,60.3,45.2,57.5,45.2z M5.7,44.3L5.7,44.3c-0.5,3.7,2,7.1,5.7,7.7l0,0
	c3.7,0.5,7.1-2,7.7-5.7c0.1-0.4,0.1-0.8,0.1-1.1c-4.9-0.6-9.3-2.8-12.7-6C6.2,41.3,5.8,43.4,5.7,44.3z M22.2,2C11.1,2,2,11.1,2,22.2
	c0,11.2,9.1,20.2,20.2,20.2c11.2,0,20.2-9.1,20.2-20.2S33.4,2,22.2,2z M22.2,31.8c-5.3,0-9.6-4.3-9.6-9.6s4.3-9.6,9.6-9.6
	s9.6,4.3,9.6,9.6C31.8,27.5,27.5,31.8,22.2,31.8z M119,32.6c-4.1,4.1-4.1,10.9,0,15s10.9,4.1,15,0s4.1-10.9,0-15
	S123.2,28.5,119,32.6z M130.1,43.7c-2,2-5.2,2-7.1,0c-2-2-2-5.2,0-7.1c2-2,5.2-2,7.1,0C132.1,38.5,132.1,41.7,130.1,43.7z M219,45.2
	c-1.8-0.4-3.2-1.3-3.2-3.8v-6.3h2.9c1.5,0,2.8-1.2,2.8-2.8c0-1.5-1.2-2.8-2.8-2.8h-2.9v-2.3c0-1.5-1.2-2.8-2.8-2.8l0,0
	c-1.5,0-2.8,1.2-2.8,2.8v2.3h-2c-1.5,0-2.8,1.2-2.8,2.8c0,1.5,1.2,2.8,2.8,2.8h2v6.3c0,5.1,2.9,9,8.1,9.3c1.6,0.1,2.9-0.9,3.1-2.4
	S220.7,45.5,219,45.2z M236.4,43.4c0.6-0.2,8.8-2.7,8.8-2.7c2.1-0.6,4.1-2.9,2.9-5.8c-1.9-4.7-8.4-6.7-13.3-4.3
	c-5.3,2.5-7.5,8.9-5,14.2c2.5,5.2,8.9,7.5,13.9,5.1c1.8-0.9,2.2-2.3,1.6-3.7c-0.6-1.4-2.4-1.9-3.6-1.4c-1.8,0.9-4.1,0.6-5.7-0.7
	C235.6,43.6,235.8,43.6,236.4,43.4z M234.6,37.7c0.5-1.1,1.4-2,2.5-2.5c1.6-0.8,3.5-0.7,4.9,0.2c0.5,0.3,1.8,1.6,0,2.2
	c-1.4,0.5-4.7,1.5-6.1,1.9C234.4,39.8,234.2,38.7,234.6,37.7z M190.1,29.5c-5.9,0-10.6,4.7-10.6,10.6s4.7,10.6,10.6,10.6
	c5.9,0,10.6-4.7,10.6-10.6C200.7,34.2,196,29.5,190.1,29.5z M190.1,45.2c-2.8,0-5-2.3-5-5c0-2.8,2.3-5,5-5c2.8,0,5,2.3,5,5
	C195.2,42.9,192.9,45.2,190.1,45.2z M106.6,35.2c1.9,0.3,3.1-0.6,3.4-2.1c0.3-1.5-0.6-3-2.1-3.3c-3.4-0.8-7.2,0.1-9.9,2.8
	c-4.1,4.1-4.1,10.9,0,15c2.7,2.7,6.2,3.6,9.9,2.8c1.5-0.3,2.4-1.8,2.1-3.3s-1.8-2.4-3.3-2.1c-1.9,0.4-3.5-0.1-4.8-1.3l0,0
	c-2-2-2-5.2,0-7.1C103.2,35.3,104.7,34.8,106.6,35.2z M162.7,29.5L162.7,29.5h-5.6l0,0c-3.1,0-5.6,2.5-5.6,5.6v12.5
	c0,1.5,1.2,2.8,2.8,2.8s2.8-1.2,2.8-2.8v-7.5c0-2.8,2.3-5,5.1-5s5.1,2.3,5.1,5v7.5c0,1.5,1.2,2.8,2.8,2.8s2.8-1.2,2.8-2.8v-7.5
	C172.7,34.4,168.3,29.8,162.7,29.5z"/>
<g id="logo">
	<path d="M246,21.1c-0.8,0.3-2.2,0.7-2.2,0.7c-2.1,0.7-1.2,3.8,1,3.1l3.5-1.1c2.2-0.7,3.2-2.7,2.5-4.8c-0.8-2.5-2.8-3.5-3.5-3.8
		c-4-1.7-8.6-0.3-10.8,3.3c-2.7,4.4-1.1,10,3.4,12.3c2.1,1.1,4.4,1.3,6.5,0.7c1.3-0.4,0.1,0,1.4-0.4c0.6-0.2,1.1-0.6,1.4-1.1
		c0.6-1.1,0.2-2.5-1-3.1c-0.6-0.3-1.2-0.3-1.7-0.2c-0.5,0.2-1,0.3-1.2,0.4c-1.1,0.4-2.3,0.3-3.4-0.3c-1.9-1.1-2.7-3.5-1.8-5.5
		c1-2.1,3.9-3.1,6-2C246.8,19.8,246.8,20.9,246,21.1z M96.2,17c-3.4,3.4-3.4,9,0,12.4c3.4,3.4,9,3.4,12.4,0s3.4-9,0-12.4
		C105.2,13.6,99.7,13.6,96.2,17z M105.4,26.1c-1.6,1.6-4.3,1.6-5.9,0c-1.6-1.6-1.6-4.3,0-5.9c1.6-1.6,4.3-1.6,5.9,0
		C107,21.8,107,24.5,105.4,26.1z M205.3,14.4c-4.8,0-8.7,3.9-8.7,8.7c0,4.8,3.9,8.7,8.7,8.7c4.8,0,8.7-3.9,8.7-8.7
		C214.1,18.3,210.1,14.4,205.3,14.4z M205.3,27.3c-2.3,0-4.2-1.9-4.2-4.2c0-2.3,1.9-4.2,4.2-4.2c2.3,0,4.2,1.9,4.2,4.2
		C209.5,25.5,207.6,27.3,205.3,27.3z M77.7,5.3c0,0-0.1,0-0.1,0c0,0-0.1,0-0.1,0c-1.4,0-2.1,0-3.7,0c-4,0-7.3,3.2-7.3,7.3
		c0,2,0,3.4,0,4.6c0,1.1,0,1.9,0,2.7v8.8c0,2,1.6,3.6,3.6,3.6h0c2,0,3.6-1.6,3.6-3.6v-1.6c1.2,0.5,2.6,0.7,4,0.7
		c6.2,0,11.2-5,11.2-11.2S83.9,5.3,77.7,5.3z M77.7,21.9c-3,0-5.4-2.4-5.4-5.4s2.4-5.4,5.4-5.4s5.4,2.4,5.4,5.4S80.7,21.9,77.7,21.9
		z M125.1,14.4l-4.4,0h0c-2.5,0-4.6,2.1-4.6,4.6v10.3c0,1.3,1,2.3,2.3,2.3c1.3,0,2.3-1,2.3-2.3v-6.1c0-1.1,0.4-2.1,1.2-2.9
		c0.8-0.8,1.9-1.2,2.9-1.2c0,0,0.2,0,0.2,0c1.3,0,2.3-1,2.3-2.3v0C127.3,15.4,126.3,14.4,125.1,14.4z M149.6,17
		c-3.4,3.4-3.4,9,0,12.4c3.4,3.4,9,3.4,12.4,0c3.4-3.4,3.4-9,0-12.4C158.5,13.6,153,13.6,149.6,17z M158.7,26.1
		c-1.6,1.6-4.3,1.6-5.9,0c-1.6-1.6-1.6-4.3,0-5.9c1.6-1.6,4.3-1.6,5.9,0C160.3,21.8,160.3,24.5,158.7,26.1z M183.4,14.4L183.4,14.4
		l-4.6,0h0c-2.5,0-4.6,2.1-4.6,4.6v10.3c0,1.3,1,2.3,2.3,2.3c1.3,0,2.3-1,2.3-2.3v-6.1c0-2.3,1.9-4.2,4.2-4.2c2.3,0,4.2,1.9,4.2,4.2
		v6.1c0,1.3,1,2.3,2.3,2.3c1.3,0,2.3-1,2.3-2.3v-6.1C191.7,18.5,188,14.7,183.4,14.4z M140,19.1c1.5,0.3,2.6-0.5,2.8-1.7
		c0.3-1.2-0.5-2.4-1.7-2.7c-2.8-0.7-6,0.1-8.2,2.3c-3.4,3.4-3.4,9,0,12.4c2.2,2.2,5.1,3,8.2,2.3c1.2-0.3,2-1.5,1.7-2.7
		c-0.3-1.2-1.5-2-2.7-1.7c-1.6,0.3-2.9,0-3.9-1.1c0,0,0,0,0,0c-1.6-1.6-1.6-4.3,0-5.9C137.2,19.2,138.5,18.8,140,19.1z M228.6,27.3
		c-1.5-0.3-2.6-1.1-2.6-3.1V19h2.2c1.3,0,2.3-1,2.3-2.3c0-1.3-1-2.3-2.3-2.3H226v-1.8c0-1.3-1-2.3-2.3-2.3h0c-1.3,0-2.3,1-2.3,2.3
		v1.8h-1.8c-1.3,0-2.3,1-2.3,2.3c0,1.3,1,2.3,2.3,2.3h1.8v5.2c0,4.2,2.4,7.4,6.7,7.7c1.3,0.1,2.4-0.8,2.5-2
		C230.8,28.6,230.1,27.6,228.6,27.3z"/>
	<path class="st1" d="M34.8,11.3c-2.2,0-4,1.6-4,3.7c0,1.3,0,5.1,0,6.4c0,2,1.8,3.7,4,3.7c2.2,0,4-1.6,4-3.7c0-1.3,0-5.1,0-6.4
		C38.9,13,37.1,11.3,34.8,11.3z M18.7,11.3c-2.2,0-4,1.6-4,3.7c0,1.3,0,5.1,0,6.4c0,2,1.8,3.7,4,3.7s4-1.6,4-3.7c0-1.3,0-5.1,0-6.4
		C22.7,13,20.9,11.3,18.7,11.3z M36.4,1c-5.6,0-13.8,0-19.3,0C8.2,1,1,8.7,1,18.2c0,9.5,7.2,17.2,16.1,17.2c5.6,0,13.8,0,19.3,0
		c8.9,0,16.1-7.7,16.1-17.2C52.5,8.7,45.3,1,36.4,1z M36.4,30H17.1c-5.9,0-10.7-5.3-10.7-11.8c0-6.5,4.8-11.8,10.7-11.8h19.3
		c5.9,0,10.7,5.3,10.7,11.8C47.1,24.7,42.3,30,36.4,30z"/>
</g>
</svg>
