<?xml version="1.0" encoding="utf-8"?>
<!-- Generator: Adobe Illustrator 24.0.1, SVG Export Plug-In . SVG Version: 6.00 Build 0)  -->
<svg aria-hidden="true" style="position: absolute; width: 0; height: 0; overflow: hidden;" xmlns="http://www.w3.org/2000/svg" xmlns:xlink="http://www.w3.org/1999/xlink">
	 <defs>
		<symbol id="svg-logo">
			<path d="M87,29.5l-5.3,0h0c-3.1,0-5.6,2.5-5.6,5.6v12.5c0,1.5,1.2,2.8,2.8,2.8c1.5,0,2.8-1.2,2.8-2.8v-7.4c0-1.3,0.5-2.6,1.5-3.6
	c1-1,2.2-1.5,3.5-1.5c0,0,0.2,0,0.3,0c1.5,0,2.8-1.2,2.8-2.8v0C89.8,30.8,88.5,29.5,87,29.5z M57.8,29.5c-5.9,0-10.6,4.7-10.6,10.6
	c0,5.9,4.7,10.6,10.6,10.6c5.9,0,10.6-4.7,10.6-10.6C68.4,34.2,63.7,29.5,57.8,29.5z M57.5,45.2c-2.8,0-5-2.3-5-5c0-2.8,2.3-5,5-5
	c2.8,0,5,2.3,5,5C62.6,42.9,60.3,45.2,57.5,45.2z M5.7,44.3L5.7,44.3c-0.5,3.7,2,7.1,5.7,7.7h0c3.7,0.5,7.1-2,7.7-5.7
	c0.1-0.4,0.1-0.8,0.1-1.1c-4.9-0.6-9.3-2.8-12.7-6C6.2,41.3,5.8,43.4,5.7,44.3z M22.2,2C11.1,2,2,11.1,2,22.2
	c0,11.2,9.1,20.2,20.2,20.2c11.2,0,20.2-9.1,20.2-20.2C42.4,11.1,33.4,2,22.2,2z M22.2,31.8c-5.3,0-9.6-4.3-9.6-9.6
	c0-5.3,4.3-9.6,9.6-9.6c5.3,0,9.6,4.3,9.6,9.6C31.8,27.5,27.5,31.8,22.2,31.8z M119,32.6c-4.1,4.1-4.1,10.9,0,15
	c4.1,4.1,10.9,4.1,15,0c4.1-4.1,4.1-10.9,0-15C129.9,28.5,123.2,28.5,119,32.6z M130.1,43.7c-2,2-5.2,2-7.1,0c-2-2-2-5.2,0-7.1
	c2-2,5.2-2,7.1,0C132.1,38.5,132.1,41.7,130.1,43.7z M219,45.2c-1.8-0.4-3.2-1.3-3.2-3.8v-6.3h2.9c1.5,0,2.8-1.2,2.8-2.8
	c0-1.5-1.2-2.8-2.8-2.8h-2.9v-2.3c0-1.5-1.2-2.8-2.8-2.8h0c-1.5,0-2.8,1.2-2.8,2.8v2.3h-2c-1.5,0-2.8,1.2-2.8,2.8
	c0,1.5,1.2,2.8,2.8,2.8h2v6.3c0,5.1,2.9,9,8.1,9.3c1.6,0.1,2.9-0.9,3.1-2.4S220.7,45.5,219,45.2z M236.4,43.4
	c0.6-0.2,8.8-2.7,8.8-2.7c2.1-0.6,4.1-2.9,2.9-5.8c-1.9-4.7-8.4-6.7-13.3-4.3c-5.3,2.5-7.5,8.9-5,14.2c2.5,5.2,8.9,7.5,13.9,5.1
	c1.8-0.9,2.2-2.3,1.6-3.7c-0.6-1.4-2.4-1.9-3.6-1.4c-1.8,0.9-4.1,0.6-5.7-0.7C235.6,43.6,235.8,43.6,236.4,43.4z M234.6,37.7
	c0.5-1.1,1.4-2,2.5-2.5c1.6-0.8,3.5-0.7,4.9,0.2c0.5,0.3,1.8,1.6,0,2.2c-1.4,0.5-4.7,1.5-6.1,1.9C234.4,39.8,234.2,38.7,234.6,37.7z
	 M190.1,29.5c-5.9,0-10.6,4.7-10.6,10.6c0,5.9,4.7,10.6,10.6,10.6c5.9,0,10.6-4.7,10.6-10.6C200.7,34.2,196,29.5,190.1,29.5z
	 M190.1,45.2c-2.8,0-5-2.3-5-5c0-2.8,2.3-5,5-5c2.8,0,5,2.3,5,5C195.2,42.9,192.9,45.2,190.1,45.2z M106.6,35.2
	c1.9,0.3,3.1-0.6,3.4-2.1c0.3-1.5-0.6-3-2.1-3.3c-3.4-0.8-7.2,0.1-9.9,2.8c-4.1,4.1-4.1,10.9,0,15c2.7,2.7,6.2,3.6,9.9,2.8
	c1.5-0.3,2.4-1.8,2.1-3.3c-0.3-1.5-1.8-2.4-3.3-2.1c-1.9,0.4-3.5-0.1-4.8-1.3c0,0,0,0,0,0c-2-2-2-5.2,0-7.1
	C103.2,35.3,104.7,34.8,106.6,35.2z M162.7,29.5L162.7,29.5l-5.6,0h0c-3.1,0-5.6,2.5-5.6,5.6v12.5c0,1.5,1.2,2.8,2.8,2.8
	s2.8-1.2,2.8-2.8v-7.5c0-2.8,2.3-5,5.1-5c2.8,0,5.1,2.3,5.1,5v7.5c0,1.5,1.2,2.8,2.8,2.8s2.8-1.2,2.8-2.8v-7.5
	C172.7,34.4,168.3,29.8,162.7,29.5z"/>

		</symbol>
		<symbol id="svg-arrowCite">
			<path d="M3.4,3v3.1h12.2L2.3,19.4l2.2,2.2L17.8,8.2v12.2h3.1V3H3.4z"/>
		</symbol>
	</defs>
</svg>
