<?xml version="1.0" encoding="utf-8"?>
<!-- Generator: Adobe Illustrator 24.0.1, SVG Export Plug-In . SVG Version: 6.00 Build 0)  -->
<svg aria-hidden="true" style="position: absolute; width: 0; height: 0; overflow: hidden;" xmlns="http://www.w3.org/2000/svg" xmlns:xlink="http://www.w3.org/1999/xlink">
	 <defs>
		<symbol id="svg-logo">
			<style type="text/css">
				.logo-black{fill:#111;}
				.logo-skyBlue{fill:#20BDDD;}
			</style>
			<path class="logo-skyBlue" d="M18.9,11.4c-2.3,0-4.1,1.7-4.1,3.7c0,1.3,0,5.2,0,6.4c0,2.1,1.8,3.7,4.1,3.7s4.1-1.7,4.1-3.7
		c0-1.3,0-5.2,0-6.4C22.9,13.1,21.1,11.4,18.9,11.4z M36.8,1c-5.6,0-13.9,0-19.5,0C8.3,1,1,8.8,1,18.4C1,28,8.3,35.7,17.2,35.7
		c5.6,0,13.9,0,19.5,0c9,0,16.2-7.8,16.2-17.4C53,8.8,45.8,1,36.8,1z M36.8,30.3H17.2c-6,0-10.8-5.4-10.8-11.9
		c0-6.6,4.9-11.9,10.8-11.9h19.5c6,0,10.8,5.4,10.8,11.9C47.6,24.9,42.8,30.3,36.8,30.3z M35.2,11.4c-2.3,0-4.1,1.7-4.1,3.7
		c0,1.3,0,5.2,0,6.4c0,2.1,1.8,3.7,4.1,3.7s4.1-1.7,4.1-3.7c0-1.3,0-5.2,0-6.4C39.3,13.1,37.4,11.4,35.2,11.4z"/>
	<path class="logo-black" d="M240.9,25c0.5-0.1,7.3-2.3,7.3-2.3c1.8-0.5,3.4-2.4,2.4-4.8c-1.6-3.9-7-5.6-11.1-3.6c-4.4,2.1-6.3,7.4-4.1,11.8
		c2.1,4.3,7.4,6.2,11.6,4.2c1.5-0.8,1.8-1.9,1.3-3.1c-0.5-1.1-2-1.6-3-1.1c-1.4,0.8-3.3,0.5-4.6-0.4C240.5,25.4,240.4,25.1,240.9,25
		z M240.5,21.6c-1.3,0.4-1.4-0.6-1.1-1.4c0.4-0.9,1.1-1.7,2.1-2.1c1.4-0.7,2.9-0.5,4.1,0.1c0.4,0.2,1.5,1.3,0,1.8
		C244.4,20.5,241.7,21.3,240.5,21.6z M103,13.5c-4.9,0-8.8,4-8.8,8.8s4,8.8,8.8,8.8c4.9,0,8.8-4,8.8-8.8S107.9,13.5,103,13.5z
		 M103,26.5c-2.3,0-4.2-1.9-4.2-4.2c0-2.3,1.9-4.2,4.2-4.2c2.3,0,4.2,1.9,4.2,4.2C107.2,24.6,105.3,26.5,103,26.5z M79.2,6.1
		c-0.1,0-0.1,0-0.2,0c0,0-0.1,0-0.1,0c-1.3,0-2,0-3.5,0c-3.8,0-6.9,3.1-6.9,6.9c0,1.9,0,3.3,0,4.3c0,1,0,1.8,0,2.5V28
		c0,1.9,1.5,3.4,3.4,3.4c1.9,0,3.4-1.5,3.4-3.4v-1.6c1.2,0.5,2.5,0.7,3.8,0.7c5.8,0,10.6-4.7,10.6-10.6S85.1,6.1,79.2,6.1z
		 M79.2,21.7c-2.8,0-5.1-2.3-5.1-5.1s2.3-5.1,5.1-5.1c2.8,0,5.1,2.3,5.1,5.1S82.1,21.7,79.2,21.7z M125.4,13.5l-4.4,0h0
		c-2.6,0-4.6,2.1-4.6,4.6v10.4c0,1.3,1,2.3,2.3,2.3c1.3,0,2.3-1,2.3-2.3v-6.2c0-1.1,0.4-2.2,1.2-3c0.8-0.8,1.9-1.2,2.9-1.2
		c0,0,0.2,0,0.2,0c1.3,0,2.3-1,2.3-2.3v0C127.7,14.5,126.6,13.5,125.4,13.5z M205.5,13.5c-4.9,0-8.8,4-8.8,8.8s4,8.8,8.8,8.8
		c4.9,0,8.8-4,8.8-8.8S210.4,13.5,205.5,13.5z M205.5,26.5c-2.3,0-4.2-1.9-4.2-4.2c0-2.3,1.9-4.2,4.2-4.2c2.3,0,4.2,1.9,4.2,4.2
		C209.7,24.6,207.8,26.5,205.5,26.5z M228.6,26.6c-1.5-0.3-2.6-1.1-2.6-3.2v-5.2h2.3c1.3,0,2.3-1,2.3-2.3s-1-2.3-2.3-2.3h-2.3v-1.9
		c0-1.3-1-2.3-2.3-2.3h0c-1.3,0-2.3,1-2.3,2.3v1.9h-1.9c-1.3,0-2.3,1-2.3,2.3s1,2.3,2.3,2.3h1.9v5.2c0,4.3,2.4,7.5,6.8,7.8
		c1.4,0.1,2.4-0.8,2.6-2C230.8,27.9,230,26.9,228.6,26.6z M140.2,18.2c1.5,0.3,2.6-0.5,2.9-1.7c0.3-1.2-0.5-2.5-1.8-2.8
		c-2.8-0.7-6,0.1-8.3,2.4c-3.5,3.5-3.5,9,0,12.5c2.2,2.2,5.2,3,8.3,2.4c1.2-0.3,2-1.5,1.7-2.8c-0.3-1.3-1.5-2-2.8-1.8
		c-1.6,0.3-2.9,0-4-1.1c0,0,0,0,0,0c-1.6-1.6-1.6-4.3,0-5.9C137.4,18.3,138.7,17.9,140.2,18.2z M155.9,13.5c-4.9,0-8.8,4-8.8,8.8
		s4,8.8,8.8,8.8c4.9,0,8.8-4,8.8-8.8S160.8,13.5,155.9,13.5z M155.9,26.5c-2.3,0-4.2-1.9-4.2-4.2c0-2.3,1.9-4.2,4.2-4.2
		c2.3,0,4.2,1.9,4.2,4.2C160.1,24.6,158.2,26.5,155.9,26.5z M183.8,13.5L183.8,13.5l-4.7,0h0c-2.6,0-4.6,2.1-4.6,4.6v10.4
		c0,1.3,1,2.3,2.3,2.3c1.3,0,2.3-1,2.3-2.3v-6.2c0-2.3,1.9-4.2,4.2-4.2c2.3,0,4.2,1.9,4.2,4.2v6.2c0,1.3,1,2.3,2.3,2.3
		s2.3-1,2.3-2.3v-6.2C192.2,17.6,188.5,13.7,183.8,13.5z"/>
		</symbol>
		<symbol id="svg-arrowCite">
			<path d="M3.4,3v3.1h12.2L2.3,19.4l2.2,2.2L17.8,8.2v12.2h3.1V3H3.4z"/>
		</symbol>
	</defs>
</svg>
